/* XPM */
static char *abrir0[] = {
/* columns rows colors chars-per-pixel */
"32 32 136 2 ",
"   c #7DEC5ED8018F",
".  c #878C669702B4",
"X  c #94BD718804C1",
"o  c #988174A005FF",
"O  c #A25B7C79075A",
"+  c #A2687D1A086D",
"@  c #AD2586310A89",
"#  c #B8268E0C0B72",
"$  c #BB8092500EB1",
"%  c #BC11997827CA",
"&  c #C24495360669",
"*  c #CD6E9ACC0687",
"=  c #C4709A8211BB",
"-  c #CAFBA0131041",
";  c #C2929A121D71",
":  c #D784A72A0A00",
">  c #DD0EACE40C2B",
",  c #D20DA5791576",
"<  c #DA74AF2013F9",
"1  c #D672A4B01A28",
"2  c #DC59A8071D00",
"3  c #D70FAB681C29",
"4  c #D995ABD219EC",
"5  c #DE4CB2031B96",
"6  c #E38FB527128F",
"7  c #E44DB7481EAB",
"8  c #E64DBCEA1C99",
"9  c #C37C9CE3208B",
"0  c #C10B9D6329D0",
"q  c #CB60A34A225C",
"w  c #D602ACC2247F",
"e  c #D950A96F2156",
"r  c #DBC3ACF927B8",
"t  c #DC04B1442E27",
"y  c #D7F5B2563068",
"u  c #DDCBB49034E4",
"i  c #DDD7B9D93976",
"p  c #E6E8BA012044",
"a  c #EABFBEDB2457",
"s  c #E369B06831FE",
"d  c #EB73BDA0310E",
"f  c #E0A1B8903A63",
"g  c #ED89C0DE1A25",
"h  c #F079C4BA1CFD",
"j  c #EC6BC34721BD",
"k  c #EE28C4482BF0",
"l  c #F267C7442624",
"z  c #F633CB722370",
"x  c #F9E0D014251D",
"c  c #F2B6C56927DE",
"v  c #F635CA462BA2",
"b  c #FA0FCE392E64",
"n  c #ECE9C3C23E09",
"m  c #F142C79037A0",
"M  c #FAB0CFE530DE",
"N  c #F2FACDEE3FA3",
"B  c #FAFCD110330B",
"V  c #FB27D3113ADD",
"C  c #E1A5BDB541C2",
"Z  c #EB4FBC584100",
"A  c #E0AFBC62492A",
"S  c #EE83BF524D71",
"D  c #E70AC24645A1",
"F  c #EC68C3B7461A",
"G  c #E465C3A14BC9",
"H  c #FB8BD5174427",
"J  c #FBA0D6F84AF2",
"K  c #FB60D88D4A02",
"L  c #E56FC7705175",
"P  c #EC59C8295213",
"I  c #E736C9ED566C",
"U  c #EEACCBA9557A",
"Y  c #E603C54D5AF6",
"T  c #E843CD1E5B18",
"R  c #EDC2CC4E5C1A",
"E  c #F157C5B85419",
"W  c #F096CA09560F",
"Q  c #F1C2C65A5803",
"!  c #F30CC9575CE3",
"~  c #FBEAD7F2503C",
"^  c #FBEED94655B3",
"/  c #F459D3185CE6",
"(  c #FB86DAC35D05",
")  c #EBE5CD436338",
"_  c #F461CD13627B",
"`  c #ED8DD1E864B2",
"'  c #ED9FD58D6BE3",
"]  c #F858D1B5674B",
"[  c #FBEFDCA962D3",
"{  c #F436D5046B0F",
"}  c #F4A6D9636DA6",
"|  c #FC2ADE576B11",
" . c #EAA9CE87723E",
".. c #EE8CD3EC744D",
"X. c #EF52D63F7C4B",
"o. c #F032DE6B7855",
"O. c #F442D6EA7558",
"+. c #F400DAA772C7",
"@. c #FC8DDE7C71D8",
"#. c #F47CDCEF79D6",
"$. c #FBECDDBC7BBA",
"%. c #FCC1E100757B",
"&. c #F2F9E27F7FD2",
"*. c #FCE3E2A57CB0",
"=. c #F058D93F85F2",
"-. c #F09AD7DE822E",
";. c #F183D94E8409",
":. c #F533DDCC8980",
">. c #F2DCDD9A926A",
",. c #F0FDDD9A9B81",
"<. c #F571E3DC8247",
"1. c #FCC4E3FE849E",
"2. c #F742E3DA8CBE",
"3. c #FCA9E6B38B4B",
"4. c #FC5DE9FB8E37",
"5. c #FD25E7B192A5",
"6. c #F875EE4C93C3",
"7. c #FE76ED719547",
"8. c #F579E1A99AEB",
"9. c #FDB7EC809B0A",
"0. c #FEF9F2FF9D22",
"q. c #F80BE703A205",
"w. c #F951E731A17C",
"e. c #FDC2EBBDA416",
"r. c #F3CFE462AD42",
"t. c #FD5EECE8ABBF",
"y. c #FF28F681A290",
"u. c #FF46F942A6BE",
"i. c #FF7AFA84A8EA",
"p. c #FD34EE87B3AD",
"a. c #FB0FEDBCBB6B",
"s. c #FE2AF158BD0D",
"d. c #FE6CF2EAC404",
"f. c #FDEEF3D2CB13",
"g. c #FEF5F666D377",
"h. c None",
/* pixels */
"h.h.h.h.h.h.h.h.h.h.h.h.h.h.h.h.h.h.h.h.h.h.h.h.h.h.h.h.h.h.h.h.",
"h.h.h.h.h.h.h.h.h.h.h.h.h.h.h.h.h.h.h.h.h.h.h.h.h.h.h.h.h.h.h.h.",
"h.h.h.h.h.h.h.h.h.h.h.h.h.h.h.h.h.h.h.h.h.h.h.h.h.h.h.h.h.h.h.h.",
"h.h.h.h.h.h.h.h.h.h.h.h.h.h.h.h.h.h.h.h.h.h.h.h.h.h.h.h.h.h.h.h.",
"h.h.h.h.h.h.h.h.h.h.h.h.h.h.h.h.h.h.h.h.h.h.h.h.h.h.h.h.h.h.h.h.",
"h.h.h.h.h.h.h.h.w , h.h.h.h.h.h.h.h.h.h.h.h.h.h.h.h.h.h.h.h.h.h.",
"h.h., i L T ' o.<.' w h.h.h.h.h.h.h.h.h.h.h.h.h.h.h.h.h.h.h.h.h.",
"h.h.G 6.y.u.i.i.i.u.' q h.h.h.h.h.h.h.h.3 w w h.h.h.h.h.h.h.h.h.",
"h.w &.u.i.i.i.u.i.u.0.' y y i i G I ` ' o.<.+.9 h.h.h.h.h.h.h.h.",
"h.D 6.u.u.i.u.u.y.u.u.0.4.4.4.6.0.0.y.0.0.0.3.% h.h.h.h.h.h.h.h.",
"h.I 0.u.y.y.y.0.y.y.y.0.y.0.0.0.0.0.0.0.0.0.3.% h.h.h.h.h.h.h.h.",
"h.I 0.y.0.y.0.0.0.0.0.0.0.0.0.0.0.0.6.6.4.3.{ q ; i A Y  .) h.h.",
"h.L 7.0.0.0.0.0.0.0.0.0.7.0.0.7.&.' ' ' X.=.>.,.r.a.d.f.f.-.h.h.",
"h.G 7.0.7.0.0.7.7.7.7.7.7.7.7.} ..a.f.g.g.g.g.f.f.f.d.d.p.C h.h.",
"h.G 4.7.7.7.7.7.7.7.7.4.3.1.{ ..f.g.f.f.f.d.a.p.p.p.p.t.#.h.h.h.",
"h.C 3.4.7.4.7.1.%.' ` ` ` ..:.a.f.d.d.a.p.p.t.w.q.w.9.5.D h.h.h.",
"h.f 1.4.4.4.+.) ;.,.t.a.s.d.s.s.p.p.t.t.e.9.9.:.2.5.3.} 4 h.h.h.",
"h.u $.3.3.1.R p.d.f.a.s.p.p.t.t.e.9.9.7.4.3.3.#.} [ K a h.h.h.h.",
"h.t $.1.3.{ O.a.p.p.t.t.e.e.9.5.5.3.1.1.1.%.( N k x z > h.h.h.h.",
"h.t } 1.1.! :.t.e.9.9.4.5.3.1.1.1.*.@.[ K V B l j x g h.h.h.h.h.",
"h.r { 1.$.P 5.7.5.3.3.1.*.*.%.%.| ( J V B B B l j z 6 h.h.h.h.h.",
"h.e ] $.] W 1.1.*.*.%.| | | [ ( J V B B B B B l j h h.h.h.h.h.h.",
"h.1 _ $.W / %.@.| | [ [ ( ^ J V B B B B B B B l j 6 h.h.h.h.h.h.",
"h.1 ! @.F [ [ ( ( ^ ^ ~ J V B B B B B B B B B v 8 : h.h.h.h.h.h.",
"h.2 Q ] n ^ ^ ~ J J H V B B B B B M B B B B B z < h.h.h.h.h.h.h.",
"h.h.E Q m H H V B B B B B B M M B B B M b j 5 - & h.h.h.h.h.h.h.",
"h.h.S Z v B M M M B B B B M M M v a 5 = @ X h.h.h.h.h.h.h.h.h.h.",
"h.h.Z d M B B M B B M B c a 4 = @ X h.h.h.h.h.h.h.h.h.h.h.h.h.h.",
"h.h.s k B M M b c p , $ + . h.h.h.h.h.h.h.h.h.h.h.h.h.h.h.h.h.h.",
"h.h.2 c c 7 , $ O . h.h.h.h.h.h.h.h.h.h.h.h.h.h.h.h.h.h.h.h.h.h.",
"h.h.* # o   h.h.h.h.h.h.h.h.h.h.h.h.h.h.h.h.h.h.h.h.h.h.h.h.h.h.",
"h.h.h.h.h.h.h.h.h.h.h.h.h.h.h.h.h.h.h.h.h.h.h.h.h.h.h.h.h.h.h.h."
};
