/* XPM */
static char *dibujar0[] = {
/* columns rows colors chars-per-pixel */
"32 32 194 2 ",
"   c #BFA43DB33DE6",
".  c #8EC95C2C2D9C",
"X  c #938B6380374B",
"o  c #94DD658139ED",
"O  c #9C0A70104783",
"+  c #9FA77641502B",
"@  c #A3C97CC658F2",
"#  c #82C95CFD7F9B",
"$  c #A04A7FBF61E4",
"%  c #A53A7E866DF3",
"&  c #C131453C42D0",
"*  c #C1EF49D745AF",
"=  c #C9586B205BC5",
"-  c #C9AD75316119",
";  c #CB6B7AC8653F",
":  c #54C0A3A72E2F",
">  c #5C93A3683303",
",  c #6AC1A3803C12",
"<  c #79B2A3BD45BB",
"1  c #E7F1C8E43678",
"2  c #E98DCA723160",
"3  c #E5AAC6813CAC",
"4  c #832DA3374B59",
"5  c #927BA195543C",
"6  c #9BFBA28C5A7B",
"7  c #A168A5635FBF",
"8  c #AAB784926E37",
"9  c #AC12897E69C8",
"0  c #AB1A9EAA6234",
"q  c #B7C891186702",
"w  c #BB2594A96664",
"e  c #B57390466ED7",
"r  c #BC6D96DC6A30",
"t  c #B6FC9DDC6934",
"y  c #BE9999DA6BCA",
"u  c #AA6E84D27136",
"i  c #B1F98CED7126",
"p  c #B86793EC713B",
"a  c #BF9C9D8770E0",
"s  c #B4FD97A97CCD",
"d  c #B3519AF37D85",
"f  c #BDE4A6637280",
"g  c #DC67BCBF52CF",
"h  c #DCE1BDF35B78",
"j  c #CC2585FE6B73",
"k  c #CC7288586CD1",
"l  c #C0ED9C246E59",
"z  c #CFFD909C7387",
"x  c #C2A79F2171A6",
"c  c #D1139DEC7B00",
"v  c #D58DB57463BC",
"b  c #C4FBA2CE7509",
"n  c #C38FA8657735",
"m  c #CC0AAB137785",
"M  c #C617A5687A95",
"N  c #C903A6C179C0",
"B  c #CB65AA9F7CFF",
"V  c #D1E0B21F74B9",
"C  c #D72EB8ED753D",
"Z  c #D1F5B28779E7",
"A  c #DFB0C0C052D8",
"S  c #E254C2DA4320",
"D  c #74854E6A8398",
"F  c #7E9758B080FC",
"G  c #425C4F1FD804",
"H  c #43B8502AD780",
"J  c #4DB757B3D360",
"K  c #64EF6975CAD6",
"L  c #737373EBC3AB",
"P  c #00008E06FFFF",
"I  c #000094B2FFFF",
"U  c #035F9A73FEA7",
"Y  c #08D39E85FF81",
"T  c #2E939BB7EE4E",
"R  c #0AB0A303FF79",
"E  c #32D5A511F586",
"W  c #34C1A6E4FD1B",
"Q  c #3DE4A7B5FC94",
"!  c #4A71AB0ECDF3",
"~  c #5F45B076F500",
"^  c #6147B8BFF1D0",
"/  c #7BF1C21FDBBE",
"(  c #7CF4CA47F813",
")  c #74C8C566F8B9",
"_  c #7742D8DCFA42",
"`  c #912B910791A8",
"'  c #AEB397CE8303",
"]  c #B93A9DF884D1",
"[  c #BC76A3EA8D5E",
"{  c #BF89A82092A4",
"}  c #87248305BCB2",
"|  c #8ADD850CB889",
" . c #94A38C18B38B",
".. c #A153960EAF69",
"X. c #A3889904B28F",
"o. c #B6B5A6C0A89C",
"O. c #B6F8B354B009",
"+. c #BF1BB8F6B0A3",
"@. c #BBB5BB68BB2B",
"#. c #C4E6A60880B1",
"$. c #C721A9938541",
"%. c #CD1CAE158323",
"&. c #C7AFAC4E88C1",
"*. c #C91CAD2D8A97",
"=. c #D49EA49580EC",
"-. c #D4E7A9AF83AD",
";. c #CFC6B0C283DD",
":. c #CF55B2568BB8",
">. c #D1E0B36B8587",
",. c #D412B6D08A4A",
"<. c #D9C6B7728DFD",
"1. c #D6DCBA4E8D68",
"2. c #D973BB7F8FC8",
"3. c #C153AB93975B",
"4. c #CDEAB45993E0",
"5. c #CD07B5B69A37",
"6. c #D54DBAE493F2",
"7. c #DA3BBEA291EB",
"8. c #D5E9BE9D9D6A",
"9. c #C7E2B4C1A548",
"0. c #D465BEF9A2AF",
"q. c #DD6AC2FE9638",
"w. c #DF51C5EF99D9",
"e. c #E07AC60B9754",
"r. c #E11EC7E19B28",
"t. c #E281C9BC9D2A",
"y. c #D7ABC1A8A257",
"u. c #DC67C5E6A2C3",
"i. c #D57BC304ABBD",
"p. c #E001CB4CA990",
"a. c #CFC1C151B424",
"s. c #C4B5C272BFA8",
"d. c #CF4BC567BA97",
"f. c #D09AC2F5B650",
"g. c #D8C3C810B402",
"h. c #DAB5CA3AB49F",
"j. c #D0CDC48AB946",
"k. c #DAF1CE1BBE68",
"l. c #DF4BD167BE52",
"z. c #E471CD3AA2B8",
"x. c #E372CEF9AB74",
"c. c #E5A7D167ACC3",
"v. c #E5B7D49CB74C",
"b. c #E4B2D4D1BA96",
"n. c #E85DD930BE4A",
"m. c #92C2B0B7C987",
"M. c #A471B688C345",
"N. c #B666BFD7C313",
"B. c #BEEDCFBDD64B",
"V. c #8C01C525EC2E",
"C. c #8246D1B6ECAC",
"Z. c #8581CAC9F2E2",
"A. c #8B7CCCD7F1E4",
"S. c #B81AD55FEAF3",
"D. c #C37BC2E4C2B1",
"F. c #CA5BCB60CD05",
"G. c #D376CF4ECA95",
"H. c #DE44D360C5C8",
"J. c #D505D159CD92",
"K. c #DD15D514CB44",
"L. c #CCE6CF4CD139",
"P. c #CD95D247D4D6",
"I. c #D25BD2AAD347",
"U. c #DDB9D7F8D2CC",
"Y. c #DE9ADB59D6FD",
"T. c #D184D9B7DC58",
"R. c #DC78DD19DD8D",
"E. c #E221D5DAC3E3",
"W. c #E5C4D8E4C42A",
"Q. c #E17BD737C9DE",
"!. c #E68ADCCDCDCF",
"~. c #EA29DFEBCE82",
"^. c #E489DD33D29B",
"/. c #E1F9DF4FDC47",
"(. c #EB80E141CF86",
"). c #EB2EE2B2D475",
"_. c #E572E19EDC99",
"`. c #EB1BE525DBE8",
"'. c #C18ED917EC82",
"]. c #CE80DE83EAEF",
"[. c #DF14DFA7E171",
"{. c #DEE0E128E27D",
"}. c #E4B6E4F4E548",
"|. c #E9D8E73EE3C4",
" X c #EECDEA85E3B2",
".X c #E4EBE6A9E86C",
"XX c #E763E8B9EA9C",
"oX c #EC64EC42EC3D",
"OX c #F09FEFDEEF72",
"+X c #E83CEE78F097",
"@X c #EF5CEFEDF1E8",
"#X c #EFAFF076F2ED",
"$X c #F10DF16FF324",
"%X c None",
/* pixels */
"%X%X%X%X%X%X%X%X%X%X%X%X%X%X%X$X$X$X%X%X%X%X%X%X%X%X%X%X%X%X%X%X",
"%X%X%X%X%X%X%X%X%X%X%X$X$X X X`.).`. XOXOX$X%X%X%X%X%X%X%X%X%X%X",
"%X%X%X%X%X%X%X%X%X$X X).n.c.z.z.t.z.z.c.W.). X@X%X%X%X%X%X%X%X%X",
"%X%X%X%X%X%X%X%XOX).c.t.r.t.w.y.t.t.r.r.r.r.x.~.OX%X%X%X%X%X%X%X",
"%X%X%X%X%X%X$X Xv.r.r.r.r.9.L K X.w.r.w.w.w.w.w.W.OX%X%X%X%X%X%X",
"%X%X%X%X%X$X Xx.r.r.r.r.w.} G G J o.e.q.w.q.w.q.w.).oX%X%X%X%X%X",
"%X%X%X%X%X Xx.q.r.e.q.q.q.| H G H ..q.q.q.q.7.q.7.b.oX%X%X%X%X%X",
"%X%X%X%XOXv.q.2.-.2.q.q.q.5. .L | 5.7.q.7.7.7.7.7.b.OX%X%X%X%X%X",
"%X%X%X@X~.q.<.= & = 2.7.7.q.7.7.7.7.7.7.7.7.7.7.u._.[.%XXX%X%X%X",
"%X%X%XoXx.7.c *   * =.7.7.7.1.7.7.1.2.u.b.!.^.^.|..X}.U.a..X%X%X",
"%X%XOX^.7.7.z &     ; 2.1.1.1.1.,.,.u.|.[.F.R.[./.f.{ @ s OX%X%X",
"%X%XoXb.1.2.c *     - 1.1.1.,.,.2.,.Q.}.%X%X}.3.+ X . . [ %X%X%X",
"%X%XoXu.,.1.,.c j k -.,.,.,.,.,.,.,.!.oX%X%Xf.o . . . o a.%X%X%X",
"%X%X|.6.,.,.,.,.,.,.,.,.>.>.,.>.>.>.H.oX%XXX] . . . . s R.%X%X%X",
"%X%X`.6.>.Z C >.>.>.>.>.;.>.;.;.>.;.w..XXX[.' . . . 9 J.%X%X%X%X",
"%X%X`.,.>.A 1 h ;.;.;.;.;.;.;.;.B %.4._.R.@.O.9 O ] J.%X%X%X%X%X",
"%X%X}.,.Z 3 2 3 V ;.%.%.;.B ;.8.y.8.Y.I.@.@.@.G.G.F.F.%X%X%X%X%X",
"%X%X|.6.V 3 2 3 V B B B B :.K._.}.].~ m.@.@.I.J.+.d.K._.oX%X%X%X",
"%X%X.Xu.m g S v B B B B B h.R.D.'.Q P T M.J.G.d M B N %.Q.XX%X%X",
"%X%XXXl.B B m B B n n N N W.R.S.W I I U V.G.d x n M M b i.@X%X%X",
"%X%X%X_.;.B N N f < , 7 b h.].E I U Y ) P.d a b b b b b h..X%X%X",
"%X%X%X.Xi.b b N 6 : : > 6 :.{.^ U R ( L.s.&.b b x b x N ^.%X%X%X",
"%X%X%X%X_.%.b b 4 : : : < x 0.{.Z.A.{.L.Y.$.x l x x y 4.}.%X%X%X",
"%X%X%X%X.XH.b b 5 > > , 6 x b :.Q.|..X_.y.a a a l l b K.}.%X%X%X",
"%X%X%X%X%X|.h.x a 0 0 t l l p p x %.4.#.l y l y y y i..X%X%X%X%X",
"%X%X%X%X%X%XR.h.b y a y l i F # e l r y y y y r y i./.%X%X%X%X%X",
"%X%X%X%X%X%X%X}.H.*.y w y u D D u y r r w w w #.H.}.%X%X%X%X%X%X",
"%X%X%X%X%X%X%X%XP.R.g.$.y w 8 % q w w w y #.i./.R.%X%X%X%X%X%X%X",
"%X%X%X%X%X%X%X%X/ ! P.R.H.i.4.&.$.*.5.i.K./.}.%X%X%X%X%X%X%X%X%X",
"%X%X%X%X%X%X%X+X_ C.N.` L.R.R..X|..XR.R.I.%X%X%X%X%X%X%X%X%X%X%X",
"%X%X%X%X%X%X%X%XT.I.%X%X%X%X%X%X%X%X%X%X%X%X%X%X%X%X%X%X%X%X%X%X",
"%X%X%X%X%X%X%X%X%X%X%X%X%X%X%X%X%X%X%X%X%X%X%X%X%X%X%X%X%X%X%X%X"
};
