/* XPM */
static char *guardar0[] = {
/* columns rows colors chars-per-pixel */
"32 32 164 2 ",
"   c #6DED7A307FB5",
".  c #773876A97765",
"X  c #7B547BB67CE7",
"o  c #0C966B94A2D0",
"O  c #17797365A6FF",
"+  c #12E27310AA4B",
"@  c #1CFD7899AB3B",
"#  c #112E77C1B2BB",
"$  c #112C7816B30C",
"%  c #198E7DA1B601",
"&  c #225A7CE5AE09",
"*  c #180D8335BF84",
"=  c #27AE80E0B028",
"-  c #3BF483B4AD75",
";  c #2AFD83ACB232",
":  c #21A884D1BB67",
">  c #257E8828BD7F",
",  c #2B618CA5BFF2",
"<  c #34818B0AB672",
"1  c #3C699130BA15",
"2  c #670181A28D41",
"3  c #697A83628EBA",
"4  c #7AB686248B79",
"5  c #7A8F8CFE94CC",
"6  c #418C9518BC58",
"7  c #46B69929BEFB",
"8  c #56FF97D3BD2A",
"9  c #64939553A978",
"0  c #65939D24B3FD",
"q  c #1E3B8807C2C3",
"w  c #1E40881CC2BF",
"e  c #24238CF0C577",
"r  c #2B758CAFC064",
"t  c #2A7091A6C83E",
"y  c #2A6F91A5C85F",
"u  c #339D931DC448",
"i  c #3C1699BBC7F3",
"p  c #30459627CB42",
"a  c #361F9ACBCDF6",
"s  c #3C3A9F86D0A7",
"d  c #4BD39D2AC192",
"f  c #41BB9E46CAB0",
"g  c #4757A280CD46",
"h  c #4CE3A6C4CFF1",
"j  c #53BEA348C4FC",
"k  c #5BACA93BC83F",
"l  c #5BB5A9B1C8E2",
"z  c #4252A443D3A2",
"x  c #482FA8D4D661",
"c  c #4DF6AD6AD916",
"v  c #5285AB1AD2A1",
"b  c #5864AFBAD543",
"n  c #5E0AB420D7CD",
"m  c #54BFB24ADBFB",
"M  c #5D02B78ADEA3",
"N  c #5FA8B959DEA4",
"B  c #63ADA3F3C831",
"V  c #67E1A74BCA96",
"C  c #60E5AD83CAFC",
"Z  c #6DA4ABF7CD5D",
"A  c #65FBB17ECD7C",
"S  c #6AFEB536CFD2",
"D  c #6B57B5B5D05E",
"F  c #63DAB8A9DA94",
"G  c #6B7DBD44DCD5",
"H  c #754BB1FBD152",
"J  c #7B20B684D41E",
"K  c #731CBB7DD394",
"L  c #7F08B9A0D62D",
"P  c #74E4BD1BDBD1",
"I  c #6117BBC8E178",
"U  c #680CBE6DE124",
"Y  c #6F0EC166DFC3",
"T  c #7A84C192D6FE",
"R  c #7C89C47BDCC5",
"E  c #6AFFC2EAE591",
"W  c #7471C509E242",
"Q  c #7A76C993E528",
"!  c #73F5CA09E9FB",
"~  c #798DCE6CECDB",
"^  c #7FDAD37AEFE8",
"/  c #8499848A8598",
"(  c #86A987B6895B",
")  c #898E8A598BCD",
"_  c #88AB8DD590F4",
"`  c #859390FE9618",
"'  c #84E797269E9A",
"]  c #8EE998709CF5",
"[  c #93C9951B96D8",
"{  c #90179B5E9FE1",
"}  c #9BB59B3C9BD2",
"|  c #8B379D8CA515",
" . c #9EBF9FFEA112",
".. c #8E8FA096A747",
"X. c #98EFA252A626",
"o. c #9A86A53FA9B8",
"O. c #8488AB71B9EE",
"+. c #8DDBAECEBB5D",
"@. c #9858A9DCB050",
"#. c #8C8FB295BFE2",
"$. c #A12DA2A5A3EC",
"%. c #ABFAAD45AECE",
"&. c #A436ADE1B1FA",
"*. c #A22DB344B98E",
"=. c #AEFAB783BB79",
"-. c #AEF7B92FBD0C",
";. c #B2CFB1A1B2CA",
":. c #B69FB719B8CB",
">. c #B837B94DBB33",
",. c #BB49BC70BE1F",
"<. c #8E17B546C414",
"1. c #951CBA5CC6F7",
"2. c #82EBBCAFD801",
"3. c #868ABF7CD9BD",
"4. c #AC1ABCE3C275",
"5. c #B646BE94C111",
"6. c #B8B3BDF0C186",
"7. c #9E00C2A7CE67",
"8. c #80CAC1E4DD5B",
"9. c #93B7CF33DCB8",
"0. c #91B4D192E017",
"q. c #B573C136C495",
"w. c #BB9BC394C6EC",
"e. c #B441C682CBF1",
"r. c #BF8FC6E3C939",
"t. c #B53BC964CF5E",
"y. c #BE85CA68CDC8",
"u. c #A8DDCB53D5C7",
"i. c #BB26CC3DD165",
"p. c #8202CCF7E5EC",
"a. c #89A6CEAFE519",
"s. c #8B1FD2E2E643",
"d. c #82E5D2F3ECE9",
"f. c #8BB8D624EC1F",
"g. c #9EB8D872E67D",
"h. c #9062D5BAE8D8",
"j. c #922DD9A1ED69",
"k. c #988ED880EB0F",
"l. c #85BDD7EEF281",
"z. c #8B63DC83F518",
"x. c #9249DDF7F3BA",
"c. c #9C08DF88F1C2",
"v. c #9213E125F796",
"b. c #9AD1E200F532",
"n. c #9931E5DBFA65",
"m. c #AF52E1F5EE9C",
"M. c #A5EDE2B2F1B6",
"N. c #AEE3E670F3F0",
"B. c #C4B4C578C6A7",
"V. c #C6A1C80DC9C1",
"C. c #C63BC86FCA77",
"Z. c #CA79CB47CBF4",
"A. c #C386CD2CD05F",
"S. c #CD4ED03BD1BF",
"D. c #D307D3A7D470",
"F. c #D7A3D81ED8A0",
"G. c #DCFADE0BDEF5",
"H. c #D7B6E0F6E5C6",
"J. c #E034E13BE249",
"K. c #E41DE4E9E5EA",
"L. c #E757E7EEE8EF",
"P. c #EACEEB68EC88",
"I. c #EFDFEFDDF0D3",
"U. c None",
/* pixels */
"U.U.U.U.U.U.U.U.U.U.U.U.U.U.U.U.U.U.U.U.U.U.U.U.U.U.U.U.U.U.U.U.",
"U.U.U.U.U.U.U.U.U.U.U.U.U.U.U.U.U.U.U.U.U.U.U.U.U.U.U.U.U.U.U.U.",
"U.U.U.U.U.U.U.U.U.U.U.U.U.U.U.U.U.U.U.U.U.U.U.U.U.U.U.U.U.U.U.U.",
"U.U.U.U.U.9.0.9.5.B.Z.Z.Z.Z.Z.Z.Z.Z.B.B.B.B.q.9.0.U.U.U.U.U.U.U.",
"U.U.U.U.g.N.N.m.y.F.G.G.G.F.G.G.F.F.D.F.F.F.y.m.N.M.h.U.U.U.U.U.",
"U.U.U.8.j.n.n.c.6.Z.D.S.D.D.D.D.S.i.t.t.A.Z.e.c.n.n.b.s.U.U.U.U.",
"U.U.U.8.f.v.x.j.-.B.B.B.B.B.B.B.w.k.x.x.u.B.4.x.v.v.v.f.U.U.U.U.",
"U.U.U.T d.z.z.f.&.:.>.>.>.:.>.>.-.h.z.z.1.;.*.f.z.z.z.d.T U.U.U.",
"U.U.U.T p.l.l.a.o.%.%.%.%.%.%.%.&.a.l.d.1.%.@.d.l.l.l.Q T U.U.U.",
"U.U.U.K Q d.^ p.|  .X.$.X.$.$.$. .p.^ ^ +.} ..p.^ ^ ^ Q K U.U.U.",
"U.U.U.S W ~ ~ R _ [ [ [ [ [ [ [ ] R ~ ~ O.[ ' Q ~ ~ ~ W D U.U.U.",
"U.U.U.A E ! ! P 4 ( ) ) ) ( _ _ _ +.<.<.| / 5 W ! ! ! Y A U.U.U.",
"U.U.U.C G E E G   . X X X X X X X ( ) ) / . 3 G E E E G C U.U.U.",
"U.U.U.l F E E U 9 2 3 3 3 3 3 3 3 2 2 3 3 2 0 U E E E F l U.U.U.",
"U.U.U.j n I I I F I N N M M M I I M F M I M M I I I I n j U.U.U.",
"U.U.U.j b M M P R 8.8.8.R 3.8.8.8.8.8.8.8.8.8.8.P N M b j U.U.U.",
"U.U.U.d v m P H.P.P.P.P.P.P.P.P.P.P.P.P.P.P.P.P.H.P m v d U.U.U.",
"U.U.U.7 h c 3.P.I.I.I.I.I.I.I.I.I.I.I.I.I.I.I.I.P.2.c h d U.U.U.",
"U.U.U.6 g x 2.P.I.P.I.P.P.I.I.I.I.P.I.P.P.I.P.I.P.2.x g 6 U.U.U.",
"U.U.U.1 f z L L.I.P.P.P.P.P.P.P.P.I.P.P.I.P.P.P.L.L z f 1 U.U.U.",
"U.U.U.< i s J L.P.P.P.P.P.P.P.P.P.P.P.P.P.P.P.P.L.J s i < U.U.U.",
"U.U.U.< u a H L.L.L.P.L.L.L.L.L.P.L.P.L.L.L.L.P.L.J a u < U.U.U.",
"U.U.U.; u p H K.L.P.K.L.L.L.L.L.K.P.L.P.L.L.L.L.K.H p u ; U.U.U.",
"U.U.U.= r y Z K.K.K.L.K.L.K.K.K.K.K.K.K.K.L.K.L.K.Z y r = U.U.U.",
"U.U.U.& > e Z J.K.K.K.K.K.K.K.K.K.K.K.K.K.K.K.K.J.Z e > & U.U.U.",
"U.U.U.@ : q V J.K.K.K.K.K.J.K.K.J.K.K.K.K.K.K.K.J.V * * & U.U.U.",
"U.U.U.O % * B G.J.G.G.G.G.G.G.G.G.G.G.G.G.G.G.G.G.B * % O U.U.U.",
"U.U.U.U.+ # 8 V.V.V.V.Z.B.V.V.V.V.V.V.V.V.V.V.Z.C.8 # + U.U.U.U.",
"U.U.U.U.U.o - 6.6.,.,.,.,.,.,.,.,.,.,.,.,.,.,.,.6.- o U.U.U.U.U.",
"U.U.U.U.U.U.U.U.U.U.U.U.U.U.U.U.U.U.U.U.U.U.U.U.U.U.U.U.U.U.U.U.",
"U.U.U.U.U.U.U.U.U.U.U.U.U.U.U.U.U.U.U.U.U.U.U.U.U.U.U.U.U.U.U.U.",
"U.U.U.U.U.U.U.U.U.U.U.U.U.U.U.U.U.U.U.U.U.U.U.U.U.U.U.U.U.U.U.U."
};
