/* XPM */
static char *nuevo1[] = {
/* columns rows colors chars-per-pixel */
"32 32 132 2 ",
"   c #7A448842BCE9",
".  c #80329764CAD5",
"X  c #88669CEECC96",
"o  c #98FB9FA1C562",
"O  c #9994A055C5F5",
"+  c #9772A3D3CA99",
"@  c #9877A468CAE1",
"#  c #99A4A506CACA",
"$  c #997FA503CB61",
"%  c #9A19A54DCB5F",
"&  c #9BA9A5E0CAE8",
"*  c #9B35A5E7CB5E",
"=  c #9BAEA627CB66",
"-  c #9C6BA6D5CBBD",
";  c #9D0BA743CBEE",
":  c #9DECA78FCB8B",
">  c #9EC5A87CCC2D",
",  c #9EF1A8DCCC66",
"<  c #9F7EA90BCC68",
"1  c #9FB4A975CCE8",
"2  c #A092A9ACCCA1",
"3  c #A0ADAA16CD82",
"4  c #A0F1AA41CD4D",
"5  c #A37BAB33CCE6",
"6  c #A7BCBD71DF1F",
"7  c #9C6BB773E2B2",
"8  c #A37DC074E93A",
"9  c #A9B1C529EA18",
"0  c #AD12C512E94A",
"q  c #AC98C501E98F",
"w  c #AD22C546E995",
"e  c #A9C6C9CDEBBF",
"r  c #AABECA8BEC03",
"t  c #ABC8CAE8EBB8",
"y  c #AD30CBA2EC02",
"u  c #AE51CADCEAD1",
"i  c #AE24CC5FEC5D",
"p  c #AC0CCB9DECDE",
"a  c #ADD3CCB5ED6F",
"s  c #AEDECCC1ECA9",
"d  c #AF52CDEDEE02",
"f  c #B129C435E292",
"g  c #B0B1CEB5EE83",
"h  c #B19ECF5CEE93",
"j  c #B2B7CFB3EEA4",
"k  c #B46BD0D6EF11",
"l  c #B63FD213EF43",
"z  c #B8DFD3BEF004",
"x  c #BB6BD4D1F043",
"c  c #B1D1D08EF2F2",
"v  c #B661D465F694",
"b  c #BD60D406F225",
"n  c #BB55D536F07A",
"m  c #BB50D6BAF310",
"M  c #BC0DD775F3CF",
"N  c #BE96D717F16E",
"B  c #BD9BD7EAF32A",
"V  c #D658CCC5D4D9",
"C  c #DEA8D924DDDA",
"Z  c #DEEAD9DADE15",
"A  c #DFD0DAD3DF02",
"S  c #E0CCDB45DF13",
"D  c #E078DB52DFBC",
"F  c #E0CBDB9FE003",
"G  c #C175D70FF387",
"H  c #C1B1D8D8F275",
"J  c #C531DB0BF357",
"K  c #C33CDBA5F517",
"L  c #C1A2D9E0F6B3",
"P  c #C29FDAADF74E",
"I  c #C413DB7AF77B",
"U  c #C47FDB7CF714",
"Y  c #C816DD49F484",
"T  c #C7D3DE8BF657",
"R  c #CB7CDC24F3F1",
"E  c #C8C8DC7BF3BF",
"W  c #CC6BDEB8F3CA",
"Q  c #CAB8DF2EF57A",
"!  c #C9E6DF79F68C",
"~  c #E144DC27E081",
"^  c #E16DDC41E0AE",
"/  c #E1B1DC7CE0F3",
"(  c #E26EDD29E1B0",
")  c #E3FCDE17E20E",
"_  c #CD31E0FEF5E3",
"`  c #CD64E103F5D8",
"'  c #CFD9E126F78B",
"]  c #D459E389F307",
"[  c #E920E83FE920",
"{  c #E9B8E965E9B8",
"}  c #EA17E9C2EA17",
"|  c #EA91EA3BEA91",
" . c #EAE9EA8DEAE9",
".. c #EBB1EAD2EAAA",
"X. c #EBADEB52EBAD",
"o. c #EC02EC01EC02",
"O. c #ECDAEC53EBBF",
"+. c #ED28ECA3EC0F",
"@. c #ECE5ECE6ECE5",
"#. c #EDD3ED53ECC0",
"$. c #EDA0ED46EDA0",
"%. c #EDEBEDE3EDEB",
"&. c #EEE0EE5AEDC7",
"*. c #EE9FEE40EE9F",
"=. c #EEF0EEECEEF0",
"-. c #EFDEEF5BEECA",
";. c #EFF1EFF2EFF1",
":. c #F0EAF02EEFC2",
">. c #F0F1F0F1F0F1",
",. c #F1CCF14DF0C1",
"<. c #F1F2F177F0EE",
"1. c #F1F1F1F1F1F1",
"2. c #F2B2F238F1B2",
"3. c #F2EBF273F1F2",
"4. c #F31BF31BF31B",
"5. c #F3ACF339F2C2",
"6. c #F423F38FF2EF",
"7. c #F45FF458F450",
"8. c #F532F4C8F454",
"9. c #F5D3F527F471",
"0. c #F474F474F474",
"q. c #F5A1F59BF593",
"w. c #F6C5F633F594",
"e. c #F6F6F6F6F6F6",
"r. c #F7A5F747F6DB",
"t. c #F81AF78FF6F8",
"y. c #F85AF85AF85A",
"u. c #F903F8A7F840",
"i. c #F97DF8FAF865",
"p. c #FA18F9C2F966",
"a. c #FAB8F9EEF91A",
"s. c None",
/* pixels */
"s.s.s.s.s.s.s.s.s.s.s.s.s.s.s.s.s.s.s.s.s.s.s.s.s.s.s.s.s.s.s.s.",
"s.s.s.s.s.s.s.s.s.s.s.s.s.s.s.s.s.s.s.s.s.s.s.s.s.s.s.s.s.s.s.s.",
"s.s.s.s.c _ _ _ _ _ _ _ _ _ _ _ _ _ _ _ W 9 s.s.s.s.s.s.s.s.s.s.",
"s.s.s.s.Q p.p.p.p.p.p.p.p.p.p.p.p.p.p.p.i.Q 8 s.s.s.s.s.s.s.s.s.",
"s.s.s.s.E p.t.y.y.y.y.y.y.y.y.y.y.y.y.y.p.! G w s.s.s.s.s.s.s.s.",
"s.s.s.s.J t.t.t.e.y.e.e.e.e.e.e.e.e.e.e.e.T I Q w s.s.s.s.s.s.s.",
"s.s.s.s.H 0.0.0.0.0.e.0.0.e.0.e.t.t.0.0.t.P P _ R w s.s.s.s.s.s.",
"s.s.s.s.B t.0.0.0.0.0.0.0.0.0.0.4.0.0.0.t.n v P P b 7 s.s.s.s.s.",
"s.s.s.s.n 8.<.0.<.0.0.4.4.4.4.4.4.4.4.4.0.] m M B x f X s.s.s.s.",
"s.s.s.s.z 8.<.0.0.<.4.<.4.4.4.4.4.4.4.4.<.4.4.4.<.:.) 2 s.s.s.s.",
"s.s.s.s.l <.<.<.4.>.<.4.4.>.4.>.<.4.4.4.<.4.4.1.<.;.( 2 s.s.s.s.",
"s.s.s.s.c <.<.<.>.4.<.<.>.4.>.>.4.;.<.<.4.<.>.4.<.;.^ > s.s.s.s.",
"s.s.s.s.j <.>.<.>.>.>.>.>.>.>.>.;.1.;.1.<.;.<.<.;.$.D > s.s.s.s.",
"s.s.s.s.j <.>.>.>.>.>.>.>.>.>.>.;.<.1.;.;.1.>.>.<.$.D * s.s.s.s.",
"s.s.s.s.d <.<.>.>.>.>.>.>.>.>.>.;.1.;.;.1.;.;.;.;.;.S > s.s.s.s.",
"s.s.s.s.d :.;.;.>.>.;.;.;.;.;.;.;.;.;.;.;.;.;.;.;.o.S - s.s.s.s.",
"s.s.s.s.i -.%.%.%.%.%.%.%.;.%.%.;.;.;.;.;.;.$.;.;.o.C * s.s.s.s.",
"s.s.s.s.i &.%.%.%.%.%.%.%.%.%.%.;.o.$.o.$.$.$.$.$.o.C + s.s.s.s.",
"s.s.s.s.r %.o.%.%.%.%.%.%.%.%. .$.$.o.o.o.$.o.o.o.} C + s.s.s.s.",
"s.s.s.s.r %.o.o.| %.| %. .%.%. .o.o.o.o.o.o.o.o.o.[ C + s.s.s.s.",
"s.s.s.s.r o.o.o.o.%.| o.%. .%.%.o.o.o.o.o.o.o.o.$.[ C + s.s.s.s.",
"s.s.s.s.r o.o.o.o. .o.o. .%. . .o.o.o.o.o.o.o.o.o.[ D + s.s.s.s.",
"s.s.s.s.r o.| %.o.o.o.o. . . . .o.o.o.o.o.o.o.o.o.[ D * s.s.s.s.",
"s.s.s.s.t o.o.| o.o.o.o.%. .%.%.o.o.o.o.o.o.o.o.$.[ D * s.s.s.s.",
"s.s.s.s.d &. .%. . . . . .$.%. .$. . . .;. . . .$.[ A * s.s.s.s.",
"s.s.s.s.d  .&. .;. .%.;.%. . .%.$.$.%.;. . .;.;.$. .A - s.s.s.s.",
"s.s.s.s.d &.%. . .;.#.#.%.%. .%. .%.;. .$. .$. .$.[ ~ - s.s.s.s.",
"s.s.s.s.d  . . . . . . . . . . . . . . . . .$. . .[ C * s.s.s.s.",
"s.s.s.s.6 Z A A F F F F F A A F A A A F F ( ( ( ( C V O s.s.s.s.",
"s.s.s.s.. : > > > 1 > 4 4 4 4 4 4 4 4 4 2 2 2 1 > > O   s.s.s.s.",
"s.s.s.s.s.s.s.s.s.s.s.s.s.s.s.s.s.s.s.s.s.s.s.s.s.s.s.s.s.s.s.s.",
"s.s.s.s.s.s.s.s.s.s.s.s.s.s.s.s.s.s.s.s.s.s.s.s.s.s.s.s.s.s.s.s."
};
